<?xml version="1.0" encoding="utf-8"?>
<!-- Generator: Adobe Illustrator 24.0.1, SVG Export Plug-In . SVG Version: 6.00 Build 0)  -->
<svg version="1.1" id="レイヤー_1" xmlns="http://www.w3.org/2000/svg" xmlns:xlink="http://www.w3.org/1999/xlink" x="0px"
	 y="0px" viewBox="0 0 267 85" style="enable-background:new 0 0 267 85;" xml:space="preserve">
<style type="text/css">
	.st0{fill:#800000;}
</style>
<g>
	<path class="st0" d="M34.5,0.2C15.5,0.2,0,19.2,0,42.5c0,23.3,15.5,42.3,34.5,42.3S69,65.8,69,42.5C69,19.2,53.5,0.2,34.5,0.2z
		 M66.2,42.7c0,21.4-14.2,38.7-31.6,38.7S3,64.1,3,42.7C3,21.4,17.1,4,34.6,4S66.2,21.4,66.2,42.7z"/>
	<path class="st0" d="M57.4,57.3L57.4,57.3c-3.4-2.7-8.9-0.9-14.3,1.5c-0.3-0.3-0.6-0.6-0.9-0.9C38.7,54,37.4,46,37,42.8
		c-0.2-1.3-0.2-2.4-0.2-3.6c0.9-0.1,1.8-0.3,2.6-0.6c0.6,0.6,1.1,1.3,1.7,2.1c1.1,1.4,1.7,3.4,2,4.4c0.5,2.1,0.7,4.2,0.7,4.2l0,0.1
		c0.1,1.9,0.1,4.1,0,6.6l0,0.2l0.2,0.1c0.6,0.4,5.7-1,6.4-1.4c0.2-0.1,0.3-0.2,0.2-0.4c-0.8-10.7-1.4-17.4-2-21.2
		c0.2-0.3,0.9-0.9,1.4-1.5c0.8-0.9,2.2-2.1,2.7-2.6c0.5,0.4,1.9,1.3,3.7,0.6c2.3-1,3.6-2.8,3.6-4.8c0-2.4-1.9-4.7-5-6
		c-2.1-0.9-5.1-0.7-8.7,0.7C44.3,9.3,40.8,8,38,8c-4.7,0.1-5.5,3.4-7,10.1l-0.3,1.2c-0.6,2.8-1.3,6.2-2,9.5l-0.3,1.7
		c-0.1,0-0.2,0-0.3,0c-2.4,0.2-3.8,2.3-3.7,4.2c0.2,2.6,1.6,3.3,2.2,3.6c0,0,0,0,0.1,0c-0.7,2.1-2.3,6.9-3.6,8.8l-0.2,0.3
		c0,0,0,0,0,0c-0.1-0.3-0.1-0.5-0.2-0.8c0-0.1-2.6-8-2.1-16.6l0-0.2c0-0.3,0-0.5,0.1-0.8c0.8-3.8,3-7,6.2-9.4
		c0.1-0.1,0.2-0.1,0.3-0.2c0.5-0.3,1.1-0.7,1.2-1.2c0-0.2,0-0.3-0.1-0.5c-0.5-0.8-1.3-0.3-2.1,0.2c-1.5,0.8-4.1,2.3-8.4,0.2
		c-2.5-1.2-4.8-0.7-6.1,0.2c-1.1,0.7-1.7,1.8-1.6,2.9c0.2,2.4,1.1,4.1,2,4.7c0.4,0.3,0.8,0.3,1,0.3c0.2-0.1,0.4-0.2,0.5-0.4
		c0.3-0.5,0-1.3-0.2-2.2c-0.2-0.8-0.5-1.6-0.3-2c0-0.1,0.1-0.2,0.3-0.2c0.2,0,0.4,0.1,0.8,0.5c0.9,0.7,2.4,2,5.8,0.9l0.8-0.2
		c0.1,0,0.2,0,0.3,0c0.1,0,0.2,0,0.2,0c0,0,0,0.2-0.2,0.4c-0.2,0.2-0.5,0.5-0.9,0.8c-2.1,1.8-6.1,5.3-5.5,14.9
		c0.2,3.9,0.6,5.2,1.4,7.8c0.2,0.7,0.4,1.4,0.7,2.3c0.1,0.4,0.5,1.5,0.7,2c-0.5,0.1-0.8,0-1.2-0.2c-1.7-0.9-1.3-1.6-0.7-3
		c0.1-0.2,0.2-0.4,0.3-0.6c0.2-0.4,0-0.9-0.4-1.1c-0.6-0.4-1.8-0.1-2.8,1.3c-0.8,1.1-0.9,2.4-0.3,3.6c0.7,1.4,2.2,2.4,4,2.5
		c0.1,0,0.1,0,0.2,0c0.4,0,0.8,0.1,1.7-0.2c0,0.3,0,0.8-0.1,1.4c-2.8-0.8-6.5,0.2-8.3,1.7c-1.9,1.6-2,3-1.6,3.9
		c0.6,1.8,3.2,3.1,5.2,3.2c2.9,0.1,5.4-1.3,7.2-4.2c0.5,0.3,1,0.6,1.6,0.9c1.6,0.9,3.5,1.9,5,3.3l0.2,0.1c1.7,1.6,1.8,1.7,3.9,3.9
		c-3.1,4.1-2.7,8.1-0.9,10.1c0.7,0.9,2,1.4,3.2,1.4c0.6,0,1.2-0.1,1.8-0.4c1-0.5,3.4-2.1,2.8-7.3l-0.1-0.6c-0.5-1.5-1.7-3.7-2.1-4.4
		c0.9-0.7,2-1.3,3.2-2.1l0.6-0.4c0.9-0.6,3.1-1.5,3.7-1.8c1.8,1.3,3.9,2.3,6.4,2.9c3.7,0.9,8.2-0.5,9.4-2.9
		C59.3,61,59.7,59.3,57.4,57.3z M56.3,60.9c-0.1,1.2-1.8,1.9-4.4,1.8h0c-3.1,0-4.7-0.8-6.3-1.9c1.5-0.6,3-1.1,4.2-1.4
		c2.1-0.6,2.9-0.8,5.1-0.3C55.8,59.3,56.4,60.1,56.3,60.9z M43.3,39.4c0,0-0.1-0.1-0.1-0.1c-0.3-0.3-0.8-0.9-1.5-1.5
		c0.2-0.1,0.5-0.2,0.7-0.4c0.2-0.1,0.5-0.3,0.7-0.4c0,0.4,0.1,0.8,0.1,1.2C43.2,38.6,43.3,39,43.3,39.4z M40.7,22.5
		c-2.8,1.9-5.1,5-6.8,9.3c-1.1-0.5-2.6-0.9-3.2-1c0.5-2.4,1-4.8,1.5-7c0.5-2.7,1.1-5.2,1.5-7.3l0.1-0.4c0.9-3.5,2.1-5.2,3.4-5.2
		c2.1,0,3,0.5,4.4,11L40.7,22.5z M37.9,37.1c-0.3,0.1-0.6,0.2-0.8,0.2c0-0.3,0.1-0.6,0.1-0.9c0.1,0.1,0.2,0.2,0.2,0.2
		C37.6,36.8,37.8,37,37.9,37.1z M37.8,34.3c0.3-1.1,0.7-2.2,1.3-3.3c1.1-2.5,2-4.2,3-5.6c0.1,0.5,0.1,0.9,0.2,1.4
		c0.2,2.2,0.5,5,0.8,7.8c-0.3,0.2-1.1,0.8-1.5,1c-0.4,0.2-1.2,0.6-1.5,0.8c-0.1-0.1-0.1-0.1-0.2-0.2c-0.1-0.1-0.2-0.2-0.3-0.3
		C38.9,35.3,38.4,34.8,37.8,34.3z M32.8,69.4c0.6,0.8,1.1,1.6,1.6,2.3c0.8,1.3,0.5,2.6,0.1,3.3c-0.3,0.5-0.7,0.7-1,0.7
		c-0.4,0-0.7-0.4-1-1h0C31.7,72.9,31.8,71.3,32.8,69.4z M34.2,64.6c-1.8-2.3-4.1-4.4-6.3-5.9c-1.7-1.1-3.5-2-5.8-3
		c0.2-0.8,0.9-3.4,1-4.9c1-0.8,1.7-2.1,1.7-2.2c1.5-3.2,2.8-6,3.9-9.7c0.6,0.1,1.3,0.2,2.1,0.3c0.3,0,0.5,0.1,0.8,0.1l0,0.1
		c0,0.6,0,0.6-0.1,1.8l0,0.6c-0.2,5.6,3.8,13.2,9.4,18.3c-1.5,0.9-3.2,2-5.3,3.4C35.1,64,34.6,64.3,34.2,64.6z M31.9,37.5
		c-0.3,0-0.8,0-1.3-0.1c-0.7-0.1-1-0.2-1.4-0.2c0.3-1.3,0.9-3.4,1.1-4.2c1,0.1,1.9,0.3,2.8,0.7C32.8,34.3,32.2,36.2,31.9,37.5z
		 M28,32.9c-0.2,1.1-0.6,2.7-0.8,3.5c-0.8-0.6-0.9-1.6-0.7-2.3C26.7,33.4,27.2,33,28,32.9z M47.2,22.1c0.3-0.1,0.6-0.2,0.9-0.3
		c4.7-1,7.9-0.3,9.3,0.7c0.6,0.4,0.9,0.9,1,1.3c0.1,1.1-0.2,2.1-1,2.6c-0.6,0.4-1.3,0.6-2,0.3C53.5,26,53,24.5,53,24.5l-0.5-1.4
		l-0.1,1.4c0,0-0.1,1.2-2.4,4.1c-0.7,0.9-1.2,1.5-1.8,2c-0.4-3.5-0.8-6.3-1.2-8.6C47,22.1,47.1,22.1,47.2,22.1z M17.2,57.8
		c-0.2,0.7-1.9,2.9-3.7,2.9c0,0-0.1,0-0.1,0c-1.2,0-2-0.4-2.1-1c-0.2-0.6,0.2-1.3,0.9-1.7c0.5-0.4,1.2-0.7,2.2-0.7
		C15.2,57.2,16.1,57.4,17.2,57.8z"/>
</g>
<g>
	<path d="M85.4,71.2v1.5h-3.8v9.5H80v-9.5h-3.8v-1.5H85.4z"/>
	<path d="M87.9,71.2V75c0.7-1,1.9-1.1,2.6-1.1c1.7,0,3.1,0.5,3.1,2.8v5.5h-1.5V77c0-0.8-0.1-1.7-2-1.7c-1.6,0-2.1,0.7-2.1,2.1v4.9
		h-1.5v-11H87.9z"/>
	<path d="M96.6,78.6c0,1.6,0,2.4,2.3,2.4c1.8,0,2.1-0.3,2.1-1.4h1.6c-0.1,2-1.1,2.8-3.6,2.8c-3.3,0-4-1.2-4-4.1
		c0-2.8,0.4-4.4,3.8-4.4c3.6,0,3.8,1.5,3.8,4.7H96.6z M101,77.4c0-1.3-0.1-2.1-2.1-2.1c-2.1,0-2.3,0.7-2.3,2.1H101z"/>
	<path d="M116.5,71.2v7.6c0,2.9-1.6,3.5-3.9,3.5c-3.5,0-4.1-1.2-4.1-3.9v-0.5h1.7v0.6c0,1.5,0,2.3,2.4,2.3c1.7,0,2.3-0.3,2.3-2.1
		v-7.5H116.5z"/>
	<path d="M125.5,80.5c0,1.1,0.1,1.5,0.2,1.8h-1.5c-0.1-0.4-0.1-0.5-0.1-0.9c-0.4,0.8-1,1.1-2.9,1.1c-1.6,0-3.1-0.2-3.1-2.4
		c0-0.6,0-2.5,2.3-2.6l2.9-0.1c0.4,0,0.7,0,0.7-0.8c0-1-0.5-1.2-2.1-1.2c-1.5,0-2,0.2-2,1.3h-1.5c0-2.2,1.6-2.6,3.5-2.6
		c2.5,0,3.6,0.5,3.6,2.7V80.5z M124,78.2c-0.2,0.3-0.7,0.3-0.8,0.3l-2.4,0.1c-1.3,0.1-1.3,0.7-1.3,1.3c0,1.1,0.8,1.2,2,1.2
		c1.4,0,2.5-0.2,2.5-1.8V78.2z"/>
	<path d="M127.1,74h1.5l0,0.9c0.3-0.4,0.8-1,2.6-1c2.8,0,3.3,1.7,3.3,4.4c0,3-1,4-3.3,4c-1.8,0-2.3-0.5-2.6-1v2.7h-1.5V74z
		 M133,78.1c0-2-0.3-2.8-2.2-2.8c-2.1,0-2.1,1.4-2.1,3.1c0,1.6,0.3,2.7,2.2,2.7C133,81,133,79.9,133,78.1z"/>
	<path d="M143.1,80.5c0,1.1,0.1,1.5,0.2,1.8h-1.5c-0.1-0.4-0.1-0.5-0.1-0.9c-0.4,0.8-1,1.1-2.9,1.1c-1.6,0-3.1-0.2-3.1-2.4
		c0-0.6,0-2.5,2.3-2.6l2.9-0.1c0.4,0,0.7,0,0.7-0.8c0-1-0.5-1.2-2.1-1.2c-1.5,0-2,0.2-2,1.3H136c0-2.2,1.6-2.6,3.5-2.6
		c2.5,0,3.6,0.5,3.6,2.7V80.5z M141.6,78.2c-0.2,0.3-0.7,0.3-0.8,0.3l-2.4,0.1c-1.3,0.1-1.3,0.7-1.3,1.3c0,1.1,0.8,1.2,2,1.2
		c1.4,0,2.5-0.2,2.5-1.8V78.2z"/>
	<path d="M146.2,74l0.1,1c0.7-1.1,2-1.1,2.6-1.1c0.8,0,3,0,3,2.7v5.6h-1.5v-5.4c0-0.6-0.1-1.6-1.9-1.6c-1.9,0-2.2,1-2.2,2.1v4.8
		h-1.5V74H146.2z"/>
	<path d="M154.9,78.6c0,1.6,0,2.4,2.3,2.4c1.8,0,2.1-0.3,2.1-1.4h1.6c-0.1,2-1.1,2.8-3.6,2.8c-3.3,0-4-1.2-4-4.1
		c0-2.8,0.4-4.4,3.8-4.4c3.6,0,3.8,1.5,3.8,4.7H154.9z M159.4,77.4c0-1.3-0.1-2.1-2.1-2.1c-2.1,0-2.3,0.7-2.3,2.1H159.4z"/>
	<path d="M167.9,76.5c0-0.6,0-1.2-2-1.2c-1.4,0-2.1,0.1-2.1,1.2c0,0.4,0.1,0.7,1,0.8l2.9,0.3c1.4,0.1,2,0.9,2,2.3
		c0,2.4-2.1,2.5-3.6,2.5c-3.2,0-3.8-0.9-3.8-2.9h1.5c0,1,0,1.5,2.3,1.5c1.8,0,2.1-0.4,2.1-1.2c0-0.7-0.3-0.9-1.1-1l-2.9-0.3
		c-1.8-0.2-1.8-1.7-1.8-2.1c0-2.5,2.2-2.6,3.5-2.6c3.4,0,3.5,1.4,3.5,2.6H167.9z"/>
	<path d="M172.5,78.6c0,1.6,0,2.4,2.3,2.4c1.8,0,2.1-0.3,2.1-1.4h1.6c-0.1,2-1.1,2.8-3.6,2.8c-3.3,0-4-1.2-4-4.1
		c0-2.8,0.4-4.4,3.8-4.4c3.6,0,3.8,1.5,3.8,4.7H172.5z M177,77.4c0-1.3-0.1-2.1-2.1-2.1c-2.1,0-2.3,0.7-2.3,2.1H177z"/>
	<path d="M195,82.3h-1.9l-1-2.7h-5l-1,2.7h-1.9l4.3-11h2.2L195,82.3z M187.6,78.1h4l-2-5.4L187.6,78.1z"/>
	<path d="M197.9,71.2v11h-1.6v-11H197.9z"/>
	<path d="M199.7,74h1.5l0,0.9c0.3-0.4,0.8-1,2.6-1c2.8,0,3.3,1.7,3.3,4.4c0,3-1,4-3.3,4c-1.8,0-2.3-0.5-2.6-1v2.7h-1.5V74z
		 M205.6,78.1c0-2-0.3-2.8-2.2-2.8c-2.1,0-2.1,1.4-2.1,3.1c0,1.6,0.3,2.7,2.2,2.7C205.6,81,205.6,79.9,205.6,78.1z"/>
	<path d="M210.4,71.2v1.6h-1.7v-1.6H210.4z M210.3,74v8.3h-1.6V74H210.3z"/>
	<path d="M213.7,74l0.1,1c0.7-1.1,2-1.1,2.6-1.1c0.8,0,3,0,3,2.7v5.6h-1.5v-5.4c0-0.6-0.1-1.6-1.9-1.6c-1.9,0-2.2,1-2.2,2.1v4.8
		h-1.5V74H213.7z"/>
	<path d="M222.3,78.6c0,1.6,0,2.4,2.3,2.4c1.8,0,2.1-0.3,2.1-1.4h1.6c-0.1,2-1.1,2.8-3.6,2.8c-3.3,0-4-1.2-4-4.1
		c0-2.8,0.4-4.4,3.8-4.4c3.6,0,3.8,1.5,3.8,4.7H222.3z M226.8,77.4c0-1.3-0.1-2.1-2.1-2.1c-2.1,0-2.3,0.7-2.3,2.1H226.8z"/>
	<path d="M242.4,75c0-2.1-1.2-2.4-3-2.4c-2.7,0-3.2,0.7-3.2,4.3c0,2.9,0.3,3.9,3.3,3.9c2.2,0,3-0.3,3-2.6h1.7c0,3.2-1.4,4.1-4.5,4.1
		c-4.1,0-5.1-1.2-5.1-5.6c0-4,0.8-5.7,4.8-5.7c2.7,0,4.6,0.6,4.7,3.9H242.4z"/>
	<path d="M247.7,71.2v11h-1.6v-11H247.7z"/>
	<path d="M255.2,82.3l-0.1-1c-0.7,1-2,1.1-2.6,1.1c-1.8,0-3.1-0.6-3.1-2.8V74h1.5v5.3c0,0.7,0,1.7,2,1.7c1,0,2.1-0.3,2.1-2V74h1.5
		v8.3H255.2z"/>
	<path d="M259.9,71.2v3.6c0.6-0.8,1.4-1,2.5-1c2.7,0,3.4,1.4,3.4,4.2c0,2.5-0.4,4.3-3.4,4.3c-1.5,0-2.1-0.5-2.5-1l-0.1,0.9h-1.4v-11
		H259.9z M259.9,78.3c0,2.3,0.6,2.8,2.3,2.8c2,0,2.1-1,2.1-3c0-2-0.4-2.7-2.2-2.7S259.9,76.2,259.9,78.3z"/>
</g>
<g>
	<path d="M99.5,31.7v24.3c0,1.1-2.4,2.1-3.8,2.1c-0.8,0-1.4-0.4-1.4-1.2v-2.3H81.5v1.5c0,1.9-3.3,2.5-4,2.5c-1.2,0-1.2-0.8-1.2-1.4
		V26.5l5.3,2.4h12.6l1.4-1.5c0.6-0.6,0.9-0.7,1.2-0.7c0.4,0,0.8,0.2,1.1,0.5l2.4,1.9c0.4,0.3,0.4,0.7,0.4,0.8
		C100.9,30.3,100.9,30.6,99.5,31.7z M94.3,29.8H81.5v11.5h12.8V29.8z M94.3,42.1H81.5v11.6h12.8V42.1z"/>
	<path d="M139.5,52.8c-0.1,0.6-0.2,1-0.5,1c-1.7,0-10.2-7-11.9-16.5V50h0.7l1.5-2.1c0.1-0.2,0.3-0.4,0.6-0.4c0.3,0,0.4,0.1,0.7,0.3
		l2.1,1.9c0.1,0.1,0.4,0.3,0.4,0.6c0,0.4-0.4,0.5-0.6,0.5h-5.3v6.9c0,1.7-2.3,2.1-3.8,2.1c-1.1,0-1.1-0.5-1.1-1.1v-7.8h-5.9
		l-0.4-0.9h6.4v-6.8c-2.8,4-9,9.5-14.9,11.4l-0.2-0.3c6.6-5.7,9.7-10.4,12.2-18.7h-11.5l-0.4-0.8h14.9v-8.8l5.5,0.4
		c0.6,0,0.7,0.3,0.7,0.5c0,0.4-0.1,0.5-1.3,1.1v6.7h8.1l2.3-2.7c0.2-0.2,0.4-0.3,0.6-0.3c0.3,0,0.4,0.1,0.7,0.3l2.7,2.3
		c0.2,0.2,0.4,0.4,0.4,0.7c0,0.4-0.3,0.5-0.6,0.5h-12.8c1,4,4.8,9.3,14,13.5v0.4C140.9,49.9,140,50.6,139.5,52.8z"/>
	<path d="M178.4,35.3v21.9c0,1-1.8,2.1-3.7,2.1c-1,0-1.3-0.3-1.3-1V55h-20v2.1c0,0.5,0,1.3-0.9,1.8c-1,0.6-2.3,0.8-2.7,0.8
		c-0.7,0-1.4-0.3-1.4-1V33l5.8,0.5c0.5,0,0.7,0.4,0.7,0.8c0,0.3,0,0.5-1.5,1.1v18.8h7.6V26l5.4,0.6c0.4,0,0.8,0.2,0.8,0.8
		c0,0.5-0.2,0.6-1.2,1v25.8h7.5V32.9l5.5,0.7c0.1,0,0.7,0.1,0.7,0.7C179.6,34.6,179.4,34.9,178.4,35.3z"/>
	<path d="M219,44.8h-13.5c0,0.1,0.1,0.2,0.1,0.3c0,0.4-0.3,0.8-1.1,1.3v9.8h6v-9.4l5.3,0.2c0.2,0,0.8,0.2,0.8,0.5
		c0,0.4-0.8,0.9-1.2,1.1v9.3c0,1.3-3,1.8-3.7,1.8c-1.1,0-1.1-0.5-1.1-0.9V57H194v1.1c0,1.5-3.8,1.6-3.9,1.6c-0.7,0-0.7-0.1-0.7-0.9
		V47l5,0.3c0.2,0,0.9,0.1,0.9,0.5c0,0.4-0.9,0.9-1.2,1v7.3h6V44.8h-14.2l-0.4-0.8h7.4l-0.2-16.1l4.7,2.3c4.1-1,7.5-2.4,11.2-4.6l5,4
		c0.1,0.1,0.1,0.3,0.1,0.4c0,0.5-0.3,0.6-0.8,0.6c-0.4,0-0.6,0-0.9-0.2c-5.2,0.4-9.5,0.5-14.5,0.4l0,4.7h13l1.7-2.1
		c0.2-0.2,0.3-0.4,0.6-0.4c0.2,0,0.2,0,0.7,0.3l2.8,1.8c0.1,0.1,0.4,0.2,0.4,0.6c0,0.4-0.3,0.5-0.6,0.5h-6.2c0,0.1,0.1,0.2,0.1,0.4
		c0,0.6-0.7,1-1.3,1.2V44h4.7l2-2.3c0.2-0.2,0.3-0.4,0.6-0.4c0.3,0,0.4,0.1,0.7,0.3l2.8,2c0.2,0.1,0.4,0.4,0.4,0.6
		C219.7,44.6,219.4,44.8,219,44.8z M204.2,36.3h-6.8l0.1,7.7h6.7V36.3z"/>
	<path d="M256,39.2c-0.3,1-0.3,1.3-0.8,1.3c-0.3,0-0.8-0.2-1.4-0.5c-6.4-3-9.1-6.9-11.5-11.1C242,29,242,29,241.8,29
		c-3,4.6-8.4,10.1-17.9,12.8l-0.2-0.3c5-2.9,10.4-7.6,13.6-15.8l5.7,1.9c0.3,0.1,0.3,0.3,0.3,0.3c0,0.3-0.2,0.5-0.3,0.6
		c3.9,4.4,9.8,6.7,15.7,7.1l0.1,0.4C256.5,37,256.1,38.7,256,39.2z M256.7,46.7h-15.4c0.1,0.7-0.1,0.7-0.9,0.9c-1.8,2.6-4,5-6.1,6.9
		c5.1-0.3,8.5-0.7,13.1-1.3c-0.9-1.3-2.5-3.3-4.2-4.4l0.1-0.3c5,0.6,11.1,4.8,11.1,8.8c0,1.3-1,2.4-2.5,2.4c-1.6,0-2.1-1.1-2.7-2.6
		c-0.5-1.3-0.8-1.9-1-2.4c-6.1,2-11.8,3.3-18.1,4.7c-0.3,0.4-0.6,0.8-0.9,0.8c-0.2,0-0.4-0.3-0.6-0.9l-2-4.3
		c1.6-0.1,4.3-0.2,5.4-0.3c1.7-3.7,2.5-6.6,2.8-8h-10.2l-0.4-0.9h26.1l2.1-3c0.1-0.1,0.3-0.3,0.6-0.3c0.3,0,0.4,0.1,0.7,0.3l3.1,2.7
		c0,0,0.3,0.3,0.3,0.7C257.3,46.6,257,46.7,256.7,46.7z M249.3,40.5h-18.7l-0.4-0.8H244l2-2.5c0.1-0.1,0.3-0.3,0.6-0.3
		c0.3,0,0.4,0.1,0.7,0.3l2.7,2.2c0.1,0.1,0.3,0.3,0.3,0.7C250.3,40.5,249.9,40.5,249.3,40.5z"/>
</g>
<g>
	<path d="M82.3,4.8c-1.9,3.4-4,5.3-5.9,6.2l-0.1-0.1c2.1-2.2,3.7-5.7,3.9-7.8l2.7,1C83,4.2,83,4.3,83,4.4C83,4.7,82.8,4.8,82.3,4.8z
		 M87.5,16c-0.4,0-0.9-0.3-1-0.6c-0.1-0.2-0.2-1.2-0.3-1.4c-2.3,0.6-4.5,1.2-6.8,1.8c-0.2,0.3-0.3,0.5-0.5,0.5c-0.1,0-0.2,0-0.2-0.2
		l-0.6-2.3c1.3,0.1,1.7,0.1,2.4,0c0.3-0.7,1.7-4.6,1.9-5.9l2.4,0.7c0.1,0,0.2,0.1,0.2,0.2c0,0.4-0.6,0.4-0.8,0.4
		c-0.6,1.1-2.1,3.3-3.1,4.5c1.1,0,2.7-0.1,4.9-0.2c-0.3-0.8-0.8-1.6-1.9-2.6l0.1-0.1c0.8,0.2,4.3,1.4,4.3,3.9
		C88.7,15.9,87.7,16,87.5,16z M89.4,10.9c0,0.1-0.1,0.2-0.2,0.2c-0.3,0-0.9-0.5-0.9-0.5c-3-2.3-3.4-5-3.5-6.5H83l-0.2-0.3h1.2l0.7-1
		c0.1-0.1,0.2-0.2,0.4-0.2c0.1,0,0.2,0,0.3,0.1l1,0.9c0.1,0.1,0.2,0.1,0.2,0.3c0,0.1,0,0.2-0.1,0.3c-0.1,0.1-0.7,0.2-1.1,0.4
		c1.1,2.7,3.8,4.1,5.5,4.7v0.1C90.5,9.4,89.7,9.7,89.4,10.9z"/>
	<path d="M105.2,11.2c0,0.1,0,0.2-0.1,0.2c-0.2,0-1-0.5-1.1-0.6v4.4l0.7-0.9c0-0.1,0.1-0.1,0.2-0.1c0.1,0,0.2,0,0.3,0.1l0.9,0.9
		c0.1,0.1,0.2,0.2,0.2,0.3c0,0.1-0.1,0.2-0.3,0.2H92.5l-0.2-0.3h2.3v-4.7c-0.6,0.4-1.3,0.8-2.3,1.1l-0.1-0.1
		c2.1-1.5,3.4-3.5,3.9-5.6h-3.4l-0.2-0.3h4.1c-0.3-0.2-0.4-0.4-0.5-0.8c-0.2-1.4-0.5-1.7-1.3-2.2l0.1-0.1c1.2,0,3.3,0.8,3.3,2.3
		c0,0.5-0.1,0.6-0.4,0.8h2.1c0.1-0.2,1-2.1,1.1-3l2.5,0.5c0.1,0,0.2,0.1,0.2,0.2c0,0.3-0.4,0.3-0.6,0.3c-0.6,0.5-1.1,0.9-2.5,2h2.9
		l0.8-1.1c0.1-0.1,0.1-0.1,0.2-0.1c0.1,0,0.2,0,0.3,0.1l1.2,1c0.1,0.1,0.1,0.1,0.1,0.2c0,0.1-0.1,0.2-0.3,0.2h-4.9
		c1.1,1.9,3.4,2.9,5.7,3.2v0.1C105.3,9.8,105.2,11,105.2,11.2z M100.3,6.1H99c0,0.4-0.4,0.4-0.6,0.4c-0.8,1.5-1.6,2.4-2.5,3.3
		l0.7,0.4h5.4l0.4-0.5C101.4,8.8,100.8,7.7,100.3,6.1z M97.1,10.5h-0.7v4.9h0.7V10.5z M99.7,10.5h-0.6c0,0.1,0,0.1,0,0.2
		c0,0.3-0.1,0.3-0.3,0.3v4.3h0.8V10.5z M102.2,10.5h-0.5c0,0.3-0.1,0.4-0.3,0.5v4.4h0.8V10.5z"/>
	<path d="M113.9,12c-0.7,0-0.9-0.7-1.1-1.3c-0.3-1.1-0.7-1.4-1-1.6v6.3c0,0.6-0.8,0.8-1.3,0.8c-0.5,0-0.5-0.2-0.5-0.5v-5.6
		c-0.7,0.5-1.3,0.9-2.2,1.2l-0.1-0.1c0.9-0.8,1.5-1.5,2.3-2.4V8l0.5,0.1c0.5-0.9,0.7-1.2,1.1-2.2h-3.4l-0.2-0.3h1.9v-3l1.9,0.2
		c0.2,0,0.3,0.1,0.3,0.3c0,0.1,0,0.2-0.5,0.3v2.2h0.1l0.6-0.8c0,0,0.2-0.2,0.4-0.2c0.1,0,0.3,0.1,0.4,0.1l1,0.9
		c0.1,0.1,0.1,0.2,0.1,0.4c0,0.2-0.1,0.3-0.7,0.5c-0.5,0.7-1,1.3-1.6,1.9c0.1,0,0.2,0.1,0.2,0.2c0,0.1,0,0.1-0.2,0.3
		c1.2,0.3,2.7,1.1,2.7,2.2C114.7,11.4,114.4,12,113.9,12z M121.5,15.4h-8.9l-0.2-0.3h3.8V8.3h-2.8l-0.2-0.3h3V2.5l1.9,0.1
		c0.1,0,0.4,0,0.4,0.2c0,0.2-0.3,0.3-0.5,0.4v4.6h0.8l0.8-1.2c0.1-0.1,0.1-0.1,0.2-0.1c0.1,0,0.2,0.1,0.3,0.1l1.1,1
		c0,0,0.1,0.1,0.1,0.3c0,0.1-0.1,0.2-0.3,0.2h-3v6.8h1.1l0.9-1.2c0-0.1,0.1-0.2,0.2-0.2c0.1,0,0.2,0.1,0.3,0.2l1.1,1.1
		c0,0,0.1,0.1,0.1,0.3C121.8,15.3,121.7,15.4,121.5,15.4z"/>
	<path d="M136.8,4.6v10.9c0,0.7-1.4,0.8-1.5,0.8c-0.4,0-0.4-0.2-0.4-0.5v-0.4h-8.4c0,0.5,0,0.9-1.3,0.9c-0.5,0-0.6-0.3-0.6-0.6V2.5
		l2.2,1h8.1l0.4-0.5c0.1-0.2,0.3-0.3,0.5-0.3s0.4,0.1,0.5,0.2l1,1c0.1,0.1,0.1,0.2,0.1,0.3C137.2,4.2,137.2,4.2,136.8,4.6z
		 M134.8,3.7h-8.4v3.4h4.8V4.2l2.1,0.3c0.3,0,0.3,0.2,0.3,0.3c0,0.3-0.2,0.3-0.6,0.4v1.9h0l0.5-0.7c0.1-0.1,0.2-0.2,0.3-0.2
		c0.1,0,0.1,0,0.3,0.2l0.6,0.4V3.7z M134.8,7.4H133v5.7c0,1.3-0.9,1.5-1.8,1.5c-0.5,0-0.6,0-0.6-0.2c0-0.1,0-0.4,0-0.5
		c0-0.8-0.4-0.9-2-1.3l0-0.1c0.4,0,1.5,0.1,2,0.1c0.6,0,0.6-0.1,0.6-0.4V7.4h-4.8v7.5h8.4V7.4z M129.3,11.6c-0.9,0-1-0.5-1-1.1
		c0-0.4-0.1-1.4-1.2-2.2l0-0.1c1.5,0.1,3.2,0.8,3.2,2.4C130.3,11.1,130,11.6,129.3,11.6z"/>
	<path d="M141.7,8.9c-0.7,0-0.8-0.5-1-1.2c-0.2-1-0.5-1.2-1.2-1.7l0-0.1c0.2,0,0.2,0,0.4,0c1,0,2.8,0.7,2.8,2
		C142.7,8.3,142.4,8.9,141.7,8.9z M153.5,9.7h-3.9c0,0.1,0,0.2,0,0.2c0,0.1-0.1,0.1-0.5,0.2c-0.7,1-1.4,1.8-2.8,3.4l4.3-0.2
		c-0.3-0.6-1.4-1.7-1.8-2l0.1-0.1c1.4,0.3,4.3,1.3,4.3,3.6c0,0.8-0.4,1.3-1.1,1.3c-1.1,0-1.1-1-1.1-1.3c0-0.4-0.1-0.7-0.1-0.9
		c-2.7,0.9-3.4,1.1-6,1.9c0,0.2-0.2,0.3-0.3,0.3c-0.1,0-0.3-0.1-0.3-0.3l-0.7-2.2c0,0,1.4-0.1,1.5-0.1c0.8-1.5,1.3-3.2,1.4-3.9h-3.1
		l-0.7,2.1c-0.1,0.3-0.2,0.4-0.2,0.6c0,0.2,0.1,0.3,0.3,0.8c0.2,0.4,0.4,1.1,0.4,1.7c0,0.6-0.4,1.3-1.2,1.3c-0.6,0-1-0.4-1-0.9
		c0-0.2,0.2-1.2,0.2-1.4c0-1.2-0.7-1.5-1.4-1.6l0-0.1c1,0,1.3-0.3,1.6-0.9c0.4-0.8,2.3-4.5,2.7-5.3c0.3-0.6,0.5-1.1,0.8-1.7l0.1,0
		l-0.5,1.5h2.4V2.6l2.2,0.2c0.2,0,0.4,0,0.4,0.3c0,0.1,0,0.2-0.1,0.2c0,0-0.4,0.1-0.4,0.2v2.3h1.4l1-1c0.1-0.1,0.1-0.1,0.2-0.1
		c0,0,0.1,0,0.3,0.1l1.1,0.9c0.1,0.1,0.1,0.1,0.1,0.3c0,0.1-0.1,0.2-0.3,0.2h-3.8v3.2h1.8l1-1.1c0.1-0.1,0.2-0.1,0.2-0.1
		c0.1,0,0.1,0,0.3,0.1l1.2,0.9c0.1,0.1,0.1,0.2,0.1,0.3C153.7,9.6,153.6,9.7,153.5,9.7z M143.1,5.6c-0.7,0-0.8-0.5-0.9-1.1
		c-0.2-0.7-0.7-1.4-1.5-1.8l0-0.1c0.2,0,0.3-0.1,0.6-0.1c1.4,0,2.9,0.7,2.9,2C144.2,4.8,143.9,5.6,143.1,5.6z M147,6.1h-2.5l0-0.1
		l-1.1,3.3h3.6V6.1z"/>
	<path d="M169.3,14.4c-0.4,0-1.5,0.1-1.9,1.3c-0.1,0.2-0.1,0.2-0.2,0.2c-0.1,0-1.3-0.9-2.2-2.3c-1.6-2.4-2.1-4.9-2.3-8
		c-0.1,1.2-0.3,4.5-1.9,6.8c-0.9,1.2-2.8,3.3-5.9,3.6v-0.1c3.8-1.6,5.8-6.4,5.8-11.7c0-0.7,0-1.2-0.1-1.5l2.7,0.3
		c0.2,0,0.3,0.1,0.3,0.3c0,0.2-0.4,0.4-0.6,0.5c-0.1,0.4-0.1,0.8-0.1,0.9c0,2,0.8,4.7,2.6,6.9c1,1.3,2.2,2.1,3.6,2.9L169.3,14.4z"/>
</g>
<g>
</g>
<g>
</g>
<g>
</g>
<g>
</g>
<g>
</g>
<g>
</g>
<g>
</g>
<g>
</g>
<g>
</g>
<g>
</g>
<g>
</g>
<g>
</g>
<g>
</g>
<g>
</g>
<g>
</g>
</svg>
